<svg width="258" height="249" xmlns="http://www.w3.org/2000/svg" xmlns:xlink="http://www.w3.org/1999/xlink" xml:space="preserve" overflow="hidden"><g transform="translate(-2597 -1990)"><path d="M2725.81 2158.44C2700.81 2158.44 2680.35 2138.67 2680.35 2114.5 2680.35 2090.33 2700.81 2070.56 2725.81 2070.56 2750.81 2070.56 2771.27 2090.33 2771.27 2114.5 2771.27 2138.67 2750.81 2158.44 2725.81 2158.44ZM2828.1 2087.04C2825.83 2078.98 2822.42 2071.29 2818.25 2064.33L2827.72 2036.87 2806.13 2016 2777.71 2025.15C2770.14 2021.12 2762.18 2017.83 2753.85 2015.63L2740.96 1990 2710.66 1990 2697.4 2015.63C2689.06 2017.83 2681.11 2021.12 2673.91 2025.15L2645.49 2016 2623.9 2036.87 2633.37 2064.33C2629.2 2071.66 2625.79 2079.35 2623.52 2087.4L2597 2099.85 2597 2129.15 2623.52 2141.96C2625.79 2150.02 2629.2 2157.71 2633.37 2164.67L2623.9 2192.13 2645.49 2213 2673.91 2203.85C2681.48 2207.88 2689.44 2211.17 2697.78 2213.37L2711.04 2239 2741.34 2239 2754.6 2213.37C2762.94 2211.17 2770.89 2207.88 2778.09 2203.85L2806.51 2213 2828.1 2192.13 2818.63 2164.67C2822.8 2157.34 2826.21 2149.65 2828.48 2141.6L2855 2128.78 2855 2099.49 2828.1 2087.04Z" fill-rule="evenodd"/><path d="M2702.5 2115C2702.5 2102.57 2713.25 2092.5 2726.5 2092.5 2739.75 2092.5 2750.5 2102.57 2750.5 2115 2750.5 2127.43 2739.75 2137.5 2726.5 2137.5 2713.25 2137.5 2702.5 2127.43 2702.5 2115Z" stroke="#172C51" stroke-width="4.58333" stroke-miterlimit="8" fill-rule="evenodd"/></g></svg>